<?xml version="1.0" encoding="utf-8"?>
<!-- Generator: Adobe Illustrator 24.3.0, SVG Export Plug-In . SVG Version: 6.00 Build 0)  -->
<svg version="1.1" id="Layer_1" xmlns="http://www.w3.org/2000/svg" xmlns:xlink="http://www.w3.org/1999/xlink" x="0px" y="0px"
	 viewBox="0 0 1100.6 690.4" style="enable-background:new 0 0 1100.6 690.4;" xml:space="preserve">
<style type="text/css">
	.st0{fill:none;stroke:#EE5586;stroke-width:2;stroke-linecap:round;stroke-linejoin:round;stroke-miterlimit:10;}
	.st1{fill:none;stroke:#414142;stroke-width:2;stroke-linecap:round;stroke-linejoin:round;stroke-miterlimit:10;}
	.st2{fill:none;stroke:#000000;stroke-width:3;stroke-linecap:round;stroke-linejoin:round;stroke-miterlimit:10;}
	.st3{fill:none;stroke:#000000;stroke-width:2;stroke-linecap:round;stroke-linejoin:round;stroke-miterlimit:10;}
	.st4{fill:#EE5586;stroke:#000000;stroke-width:3;stroke-linecap:round;stroke-linejoin:round;stroke-miterlimit:10;}
	.st5{fill:#EE5586;stroke:#000000;stroke-width:2;stroke-linecap:round;stroke-linejoin:round;stroke-miterlimit:10;}
	.st6{fill:none;stroke:#000000;stroke-width:3;stroke-miterlimit:10;}
	.st7{fill:none;stroke:#000000;stroke-width:2;stroke-miterlimit:10;}
</style>
<path id="svg-concept" class="st0" d="M-753,306.6c-0.6-0.5-11.3-6.2-11.3-6.2l-12.6,1.8"/>
<path class="st1" d="M-409.3,496.8h9.7v-4.6h-9.9L-409.3,496.8z M-390.2,492v5.2h10.1V492H-390.2z M-399.6,496.8v4.7h9.3v-4.7
	H-399.6z M-399.6,501.5h-9.4v5.5l28.9,0.4v-5.7l-10.2-0.2 M-405.8,532.9v-4h-5.2v-10.2l-3.4,2.1"/>
<path class="st1" d="M-414.7,554.4v-6.2h3.6v-8.8h2.9v-6.1h7.7v-5.9h4.2v5.9h1.7v7.1h2.3v-12.6h2.8v-2.6h3.3v-2.6h4.2v6.4h3.7
	 M-386.2,515.1h4.3v4.3h-4.3V515.1z M-407.7,522h3.8v3.8h-3.8V522z M-379.5,480.5h3.7v3.7h-3.7V480.5z M-389.1,544.1h3.7v3.7h-3.7
	V544.1z M-376.4,484.6v26.3l4.4-6.9 M-376.4,475.6v4.8 M-376.4,510.9h-36.1"/>
<path class="st1" d="M-411.1,468.1l-4,4.3l-0.3,3.2h39l3.4-6.5c-0.2,0.2-15.1,0.2-15.1,0.2v1.8h-5.2v-3H-411.1l0-12.9
	c0,0,2.1,0.5,2.1,0v-9.4h2.2v-6.1h10.1v6.1h2V434h2.6v-3.1h1.5v-3.6h4v6.9h1.4v2.9h1.8v-3h6.2v5h2.2v11.2h2.9v9.4h-3.2v3.1h5.5
	l0.7,36l-2.9,5.2l1.6,24h-3v-13.7H-411v4.4"/>
<path class="st1" d="M-382.5,427.2h4.1v4.1h-4.1V427.2z M-390.8,420.2h4.6v4.6h-4.6V420.2z M-386.5,411.9h4.6v4.6h-4.6V411.9z
	 M-422.5,496.2l-3.5,12.4h4.8l4.2-12.4 M-426,508.6l-2,9.1l5.2,0.9l1.6-10"/>
<path class="st1" d="M-428,517.7l-0.5,5.6l5.5,0.5l0.2-5.2"/>
<path class="st1" d="M-428.5,523.3l-0.3,5.6h5.8v-5.1 M-428.8,528.9l-0.6,4.2l1.5,2.5h4.5l1-2.4l-0.6-4.3 M-427.5,541.6l-1.3,4.5
	l4,5.3l3.8,0.3v-2.9h3.1v-6.4l-2-2.6"/>
<path class="st1" d="M-417.9,542.4v-6.2l-4.5-3l2.5,6.6l-3.7,2.1l-3.9-0.3l-2.5-3.7l2.1-2.3"/>
<path class="st1" d="M-417.9,536.2l1.4-8.6l-5.9-1.2 M-416.5,527.6l1.1-5.8l-7.1-0.9 M-415.4,521.8l0.4-5l-7.1-1 M-415,516.8l1-4.9
	l-7.2-1.5 M-414,511.9l0.5-5.1l-6.4-1.4"/>
<path class="st1" d="M-413.5,506.8l0.9-5.2l-5.4-1 M-412.6,501.6l3-26l-7.4,18.5v2.1h-5.5l-0.4-2.9l7.5-17.7 M-417,496.2l4.9,0.4
	 M-1039.6,669.1h22.9c0,0,61.8-23.3,61-23.3s-14.4-2.3-15.5-1.9C-972.3,644.3-1039.6,669.1-1039.6,669.1z M-917.5,632.4
	c0,0,13.8,2.3,14.4,2.1c0.6-0.2,37.9-14.6,37.9-14.6l-14.6-1.7L-917.5,632.4L-917.5,632.4z M-919.6,668.6h22.8l54.5-25.8l-17.8-2.3
	L-919.6,668.6z M-928.1,582.8l8.5,1.4l34.1-7.9l-5.7-1.9L-928.1,582.8z M-997.7,573.8c0,0,13.8,1.8,15.2,1.8
	c1.4,0,95.3-15.7,95.3-15.7l-5.3-2L-997.7,573.8z M-1075.1,623.8c1,0,15.6,1.2,15.6,1.2l36.3-10.9l-13.2-1.2
	C-1036.4,612.9-1075.1,623.8-1075.1,623.8z M-862.3,689.1h27.5l30.9-19.3l-26.2-0.6L-862.3,689.1z M-740.8,659.1
	c0.6,0.2,20.2,1.9,20.2,1.9s31.6-25.2,31-25.6c-0.6-0.4-17.4-1-17.4-1L-740.8,659.1L-740.8,659.1z M-703.9,688.9h26.7l33.7-37.2
	l-22.1-1.5L-703.9,688.9z M-542.9,689.1l8.7-36.2l19.8,1l-2.1,35.6L-542.9,689.1z M-464.6,688.9c0,0-5.8-41.9-4.3-42.1
	c1.4-0.2,20.9,0.2,20.9,0.2l9.7,42.6L-464.6,688.9L-464.6,688.9z M-491.5,624.6h18.6l-3.1-19.2h-16.3L-491.5,624.6z M-452.4,572.9
	l10.3-0.4l-5.8-10.5l-8,0.2L-452.4,572.9z M-422.2,657.9l22.1-0.4c0,0-11.8-22.3-12.8-22.5s-18.8-0.2-18.8-0.2L-422.2,657.9
	L-422.2,657.9z M-371.2,638.2h20.2l-24.7-28.9h-16.2L-371.2,638.2z M-371.8,667.6l12.6,21.7c0,0,26.6,0.3,26.2,0
	c-0.3-0.3-15.9-22.1-15.9-22.1L-371.8,667.6L-371.8,667.6z M-281.5,686.8l-33.3-33.7h20.9l38.6,33.5L-281.5,686.8z M-194.3,689.7
	c0,0-3.5-11.8-2.1-11.6s9.1,0,9.1,0l2.9,11.4 M-165.4,689.5l-9.7-59.1l11.1-0.8l9.3,60.1 M-132.1,689.5l-1.3-11.4h12.4l2.1,11.8
	 M-106.7,689.1c0-0.8-0.6-11.4-0.6-11.4h7.2v-49.2l8.1,3.7v16.9h7.4l1-34.1l-19-8.3l19.6-0.8v-9.5l8.7,1.7v7.6h17.8l2.5-47.9h3.9"/>
<path class="st1" d="M-92.1,649.2l-4.1,0.8c0,0,1.7,28.1,2.7,28.1s14.9-0.4,14.9-0.4l-1.9-28.9l-4.1,0.4 M-93.5,678.1l0.4,11
	 M-85.7,678.5l0.5,11.4 M-77,689.5l1.1-32.5l-4-2 M-69.1,689.3l2.5-67.2l-8.9-3.5l1.2-12.8"/>
<path class="st1" d="M-60.9,688.9c0.6-0.6,3.7-62.6,3.7-62.6l-9.5-4.1 M-56.5,605.8l-0.6,20.4 M-55.9,590.1l-42.6-14.3l43-0.2
	 M-260.9,582l15.7-0.8l-21-9.7l-8.3,0.8L-260.9,582z M-169.7,584.1l19.2-1.2l-42.4-12.6l-10.5,1L-169.7,584.1z M-197.8,688.6
	l-18.7-12.7h20l3.3,2.2 M-186,681.3l11.3,8.3 M-264.7,630.9l20.4-0.1l-30.4-19.2l-14.1,0.5L-264.7,630.9z M-159.5,655.9l23.7-0.6
	l-25.9-13.7 M-174.5,635.9c-0.7-0.5-15.8-8.3-15.8-8.3l-15.7,0.8l33.2,19.3 M-55,561.1l-34.3-0.3l-18.7-77.4"/>
<path class="st1" d="M-89.3,560.8l-30.7-1c0,0-17.7-72.7-17.7-74s29.7-2.3,29.7-2.3s54.7-0.7,58.3-0.3 M-120,559.8l-81.7-2.4
	l-36.6-0.3l-13.4-65.3l-14.3,1.3l-19.7-95.3 M-107,418.1l34.7-1l22-7"/>
<path class="st1" d="M-201.7,557.4l-29-136l80.1-2.1 M-72.3,417.1l19.3,65"/>
<path class="st1" d="M-220.3,556.8l-39.4-189.4l112.8-4.9 M-230.7,421.4l-16.8,5.8 M-85.8,363.3l-4-14.1l39.6-1.8 M-71,416.2
	l-12.5-44.7 M-89.8,349.2l-13.7,5.2 M-289.7,445.8l12.7-1"/>
<path class="st1" d="M-251.7,491.8l-33.3-169l234.7-14.7 M-274.3,377.4l14.6-10 M-220.5,319.4l9.7,45.5 M-108.8,312.4l8.8,39.8
	 M-188,514.2c0.2,0.8,1.2,6,1.2,6l7-0.5l-1.2-6.2L-188,514.2z M-163.2,493.7h7.4l-0.4-7.5l-8-0.8L-163.2,493.7z M-78.8,517.7l7-0.3
	l-1.4-6l-7-0.2L-78.8,517.7z M-204,456.7l7-0.3l-0.2-5.5h-7.3L-204,456.7z"/>
<path class="st1" d="M-178.8,409.2l7-0.5l-1.7-6.3l-6.7,0.5L-178.8,409.2z M-220.2,395.9l6.4-0.5l-0.7-5.2l-7.7,0.5L-220.2,395.9z
	 M-246.5,357.7l7.7-0.3l-1.2-5.2l-7.2,0.2L-246.5,357.7z M-271.8,349.4l7.8-0.5l-0.8-5.5l-8,0.3L-271.8,349.4z M-211.2,360.7
	c0.8,0.2,14.2-0.5,14.2-0.5l-0.5-4.8l-14.8,1.2 M-184.8,341.2l0.3,4.5l6-0.5l-1-5L-184.8,341.2z M-176,339.4l0.8,5.3l16-1l-1.6-5
	L-176,339.4z M-288.8,374.2l-9.1-40l12.9-11.4 M-248.2,509.8c0,0-5.1,1.9-5.7,2.1c-0.6,0.2-32.8,0.6-32.8,0.6l-1.6-33.6l18.9-1.3"/>
<path class="st1" d="M-283.6,500.1h8.8v-4.6h-8.9L-283.6,500.1z M-267.1,500.3l8.9-0.2l-0.3-5.1l-8.9,0.4L-267.1,500.3z"/>
<path class="st1" d="M-274.8,500.1v3.7h8.4v-3.5C-266.3,500.3-274.8,500-274.8,500.1z M-287.8,491.6h4.6v-4.8h11.8v-4.1h3.1
	 M-253.9,511.9l-15.8,6.1l1.8,18.7l16.8-1.3l7.3-4.6"/>
<path class="st1" d="M-269.7,518l16.1-1.1l2.5,18.5 M-253.6,516.9l6.4-3.1 M-287.2,507.3l-6,2 M-284.6,512.9l0.6,15.1
	c0,0-7.6,1.7-8.1,1.7L-284.6,512.9z M-284,528l2.9,30l42.8-0.9 M-254.4,536.1l0.9,21.2"/>
<path class="st1" d="M-259.8,557.5l-0.2-5.3l-21.7-0.9 M-251.1,557.4V552l5.5-2.7l-1.2-16.3 M-245.6,549.3l0.3,7.8 M-458.2,519.8
	h6.8l-0.2-6.6l-6.8-0.2L-458.2,519.8z M-479.9,530.8h6.1v-6.1l-6.4-0.2L-479.9,530.8z M-474.1,549.8l42.5,0.9l9.4,4.1h37.8"/>
<path class="st1" d="M-431.6,550.7l-8.5-57.5h-53.5 M-447.2,493.2l-5.1-41.9l42.7-1 M-409,445.8l-43.8,0.8l3.2-4.5
	c-0.9-0.3-40.4,1-40.4,1 M-490,452.3l37.6-1.1l-0.5-4.6c-1,0-32.7,0.9-37.2,1.1 M-475.7,425.8v5.8h7.7v-6L-475.7,425.8z
	 M-389.4,394.2h23.3 M-390.9,403.6h24.8 M-376.2,320.5l6.1,28.3l73.8-4.2 M-332.1,317.5l-4.7-21.9 M-335.6,291.7l19.1-24.1l10.2-0.3
	l-0.5-6.7l3.3-3.9l-38.3,2.7 M-316.5,267.6l9.2,47.7 M-285.2,314.8l-14.9-74l9.7-14.7l43.7-3.9l22.1,96 M-290.4,226.1l19.4,95.6"/>
<path class="st1" d="M-264.3,321l-5.4-24.4h4.7l5.5,24.3 M-253.9,320.4l-3.2-13.1h5.4l3.2,12.7 M-244.1,315.5l-1.5-8.3l3.8-0.6
	l1.9,8.5L-244.1,315.5z M-233.5,319c0-0.4-5.5-26.6-5.5-26.6l4.3,0.1l6.1,26.1 M-247.7,302.2l4.9-0.2l-3.8-20.5l-4.6,0.3
	L-247.7,302.2z M-260.4,288.1l5.1-0.4l-2.8-15.9l-5.1,0.4L-260.4,288.1z M-265.2,268.3l6.1-0.7l-1.1-4.6l-5.7,0.5L-265.2,268.3z
	 M-264.9,224l7.1,27.9l-5.6,1l-7-28.4 M-253.6,242.7c0.2,0.4,4.5,20.5,4.5,20.5c0.4,0,4.8-0.3,4.8-0.3l-4.7-20.7L-253.6,242.7
	L-253.6,242.7z M-286.1,247.5l41.8-13.7 M-230.5,294.2l3.7-0.2l2.8,10.5l3-0.2l-6-18.9l2.9-0.6l2.5,8.1l2.3-0.2l2.8,10.4l2.9-0.4
	l-4-13l3-0.3l2.8,9.2l2.5-0.3l-2.2-8.6l1.8-0.3l-0.5-2.8l3.8-0.4l0.7,2l-2,1.8l0.1,4.7l1.8-0.2l0.8-2.5l2.4-0.3l2.6,13.5l3.9-0.7
	l-3.8-13.7l1.9-0.3l-0.3-2.8l3.6-0.5l2.1,8.6l-2.6,1.3l4.6,15.7l-4.3,0.5l0.6,3.3 M-148.9,276.7l-84.1,4.6l38.4-34.7l89.4-8.1"/>
<path class="st1" d="M-138.2,312.8c-0.3-0.7-12.5-43.2-12.5-43.2l13.8-10.7l40.2-2.3l15.3,53.5 M-136.8,258.9l13.8,53.4"/>
<path class="st1" d="M-104.2,311.1l-7.3-26l5-0.7l7.2,26.5 M-95.5,301.6l-7.7-30.8l4.7-0.4l7.8,31.2L-95.5,301.6z M-121,295.9l5-0.3
	l-1-5.2c0,0-5.3-0.2-5.2,0.3C-122,291.3-121,295.9-121,295.9z M-130.5,283.3l35-20.9 M-65.2,308.9l-20-53.3l-11.5,1"/>
<path class="st1" d="M-50,298.9l-15.8-45.6l-19.4,2.3"/>
<path class="st1" d="M-49.8,263.8c0,0-7.2,1.3-7.2,0.8s-3.7-11.8-3.7-11.8l-5.2,0.5 M-60.7,252.8l10.2-1.2 M-50.3,220.6l-49.2,35.7
	l-15.5-53.7l-20.7,18.2l-13.3-50.2l26.2-25l-13-46l16.6-17.7l26-4.3l-16.3-52.7l45.3-4l-1.6-3.6l15.3-15.9 M-64.2,20.9l14,42.7
	 M-109.5,24.9l-14.2,19.7l-44,6.5l-12.7,17.5l9.3,35.3c0,0-11,1.2-11.2,1.7s-5.2,6.2-5.2,6.2l-38.7,5.7c0,0-7.8-39.8-8.3-39.5
	s-29.3,5.2-29.3,5.2l-3.8-15.5l-42.3,6.3l-8.3,17.2l-39.3,6.2l-6.7,16.2l5.7,22.5l-17.5,1.8l-18.5,52.7l10.3,62.8l8.2-0.3"/>
<path class="st1" d="M-384.2,253.3l15.8-30.8c0,0,41.7-3.2,42-3.7s7.2-13.5,7.2-13.5l173.8-18.5 M-368.3,222.4l-6.7-36.1l4.8-12.7
	l45-5l6,36.7"/>
<path class="st1" d="M-375,186.3c0.5,0,42.2-3.7,42.2-3.7l6.5,36.2 M-325.2,168.6l-7.6,14"/>
<path class="st1" d="M-372.8,197.4l31.1-2.8l4.9,25.2 M-358.5,221.4l-0.5-5.8l7.2-0.7l0.5,5.9 M-376,137.8l5.8,35.8 M-357.5,97.3
	l9.2,37.3 M-358.5,135.9l132.5-18.5 M-342.3,133.4l-2.9-14.1l42-7.4l-6.6-38 M-263.7,83.1l8,38.2 M-318.2,91.1l5.5,21.7
	 M-351.5,120.8l23.8-27.7 M-306.3,203.9l-1-6.5l6.5-1.1l0.8,6.5 M-251.2,197.8l-0.6-5.9l8-1.1l0.8,6.1 M-175.5,189.4l-0.8-5.6
	l12.8-1.5l0.8,5.8 M-238.8,255.2l14.4-15.1l43.7-3.5l37-41.9 M-194.6,246.6l-2.4-7.9 M-1032.1,555.7l26.6-2.2l54.1,0.9l73.6-5.5
	l0.4-52.8l-72.7-5.9h-49.9 M-950.1,490.2l-1.3,64.2 M-1005.5,553.5l1-38.9 M-855.4,457.8c-1-0.3-27.9-5.2-27.9-5.2l-41.2,1
	l-125.1-21.4l-46,2.3l-54.1-8.1 M-1095.6,434.5l-3.3,41.2 M-1049.6,432.2v15.9 M-924.5,453.6v38.3 M-883.3,452.6v42.5
	 M-1149.8,383.6l13.7-1.6l137.4,29.8l38.3-1.6l20.4,5.2l35-0.4l32.4,7.2l36-1l13.3,4.2l50.2-1.5v-9.7l29.7-1.2v-6.2l21.8-1
	 M-1136.1,382l-4,45.5 M-998.7,411.8l-0.6,27.8 M-960.4,410.2l-0.5,36.4"/>
<path class="st1" d="M-940,450.2v-34.8l3.5-88.8 M-905,415v37.2 M-872.6,422.2v31.9 M-836.6,421.2v5.8 M-743.4,413l2,34.6 M-753,455
	l-0.3-6l46.4-2.4l-1.4-39.1 M-823,388.2l-0.3,37.2 M-812.2,393.2v31.5"/>
<path class="st1" d="M-886.5,418.8l1.9-114.9l-17.2-9.6l-16.7,0.7v29.6l-121.3,10.5l1.4-22.5l-27.3-10.3l-36.7,4.6l-2.8,28.4
	l-44.9-13.9 M-1149.8,343.8c0.9,0,24.1-1.2,24.1-1.2l19,5.5l-3.9,39.4"/>
<path class="st1" d="M-1150.1,353.2l30.3,8.5l11.2,2.7 M-1125.6,342.5l-0.9,17.1 M-1134.9,326.8l-0.5,15.6 M-1105.2,335.3l-1.5,12.7
	 M-1065.7,302.3l-6,93.3 M-1044.2,401.6l4.4-66.5l20.3,6.8l26.4-3l16.2,6.2l39.3-2.8 M-1066.4,314l27.1,8.9"/>
<path class="st1" d="M-1042.6,375.1l12.3-2.5l41,13.2l33.5-2.2l16.5,4.3 M-1041.2,355.8l10.3,4l30.4-1.6l18.1,5.2l29.6-2.7l14.6,5.8
	 M-1019.5,341.9l-0.9,17.4 M-993.1,338.9v21.6 M-976.9,345.1l-0.3,17.7 M-952.8,360.7l-0.3,23.1 M-982.4,363.4v21.8 M-1000.5,358.2
	v24 M-1031.1,360.4v44.3 M-989.3,385.8l-1.1,25.1 M-955.8,383.6l-0.8,26.8 M-1002.6,332.7v6.9 M-986.3,331.3v9.9 M-961.5,329v14.9
	 M-947.7,327.9v14.9 M-901.8,294.3l-2.4,120.1 M-885,316.1c-0.7-0.2-16.8-11-16.8-11 M-885.5,363.6h30.8 M-884.8,344.4h21.6v-7.3
	l33-1.3l9.2,5.1l29-2.1l-0.3-32.7l17.6-1 M-716,299.3h-10v28.8h-9.5l1.8,77.3 M-726,328.1h21.2"/>
<path class="st1" d="M-726,309.3l-28.7,1.5v35.6l-34.8,2.5l-0.2,7.9 M-734.8,377.3c0,0-28.3,0.8-28.3,1.3s0.7,34.7,0.7,34.7"/>
<path class="st1" d="M-768.1,308.5v11.6l13.1-0.3 M-884.7,329.4l29.2-1.7l4.7,3.3v-12.3l26.8-2l0.2-9.7l22.3-1.5l-0.5-71.2l-39-36.5
	h-6.2l1.5-44.2l-4.5-4v-7.8l10.2-0.5v-15.2l-8.3-6.2v-16.8l-8.3-7.3v-2.5l-7.3-5.7v-12l-7-6.2h-11.7l-5-6h-7.4l0.8-22.8l-19-15.7
	V9.3L-923.5,1v14l-15.7-14.6c0,0-0.5,15.2-0.4,17c0.2,1.8-13.8-11.3-13.8-11.3l-0.9,20.2l13.6,10.9c0,0,0,15.9-0.4,16.4
	c-0.4,0.5,37.7,31.1,37.5,32c-0.2,0.9,0.4,15.4,0.2,16.4c-0.2,1.1,11.4-2,11.4-2l0.7-26.4l9.6-0.9 M-801.5,298.6l25.5-2.7
	 M-801.7,267.4l21.7-1.1 M-777.7,259.8l-2.8-3.5l-21,1.1"/>
<path class="st1" d="M-770.7,234.9l-10.6-11.5h-3.7v-24.1l-8.3-9.7l-23,2.8l-3.7-3.5l-6.3,0.7l-6.5-7.5l-4.5,0.3l-2.5-2.6h-6.7
	 M-832.8,182.1l-1,22"/>
<path class="st1" d="M-826.3,189.6l4.6,5.7v20.8 M-816.3,192.4l-5.4,2.9 M-821.5,212.3l19.2-1l8.3,8.3l0.7-30"/>
<path class="st1" d="M-802.3,211.3v14.5l17.3-2.4 M-802.3,225.8l-7.7,1.3 M-781.3,223.4l0.8,32.9 M-801.5,305.6l-39.5-28.7v-79
	 M-841,276.9l-39.2,4l-16.3-12.6l-39.3,4.1l17.3,11.9V295l-17.9-12.1l1.3-48l-54.8-38.1l2.5-48.7l-24.7-19.6l-37.2,7.5l-26.3-19.4
	l-40.4,9.1l-4.8,61l-29.5,4.8"/>
<path class="st1" d="M-896.5,268.3l1.6-76.1l15.8,10.8l1.6-36.4l12.1,10.8l1.6-32.5l7.8,6v-6.4"/>
<path class="st1" d="M-877.5,166.6l-35.6,4.8l-0.3-36.3"/>
<path class="st1" d="M-907.9,139.9l11.7,12.3l15.7-3.6 M-890.5,136.7v13.9 M-896.2,152.2v16.3 M-963.8,168.7v9.8 M-948.3,158.6
	c0,0,0.2,18.5,0,18.5c-0.2,0-34.7,4.8-34.7,4.8l-0.5,18.3"/>
<path class="st1" d="M-987.6,168.7l6.4,5.7l16.9-1.8 M-1075.6,116.6l-3.9,65.8l49.8-7.8c0,0,15.3,11,15.8,9.8c0.5-1.1,1.8-56,1.8-56
	 M-1049.3,136l-0.9,40.7"/>
<path class="st1" d="M-1029.6,174.6l-5.1,93.7l116.2,56.3 M-1034.7,268.3l-115.3,13 M-1060.5,271v-8.4l8.9-1.4l0.2,7.8 M-1143.4,280
	v-7.1l9.8-1.2l0.5,7.6 M-1085.4,258l8.2-0.4l0.3-7.6h-8.9L-1085.4,258z"/>
<path class="st1" d="M-973.2,275.4l9.1,3.4l0.5-8l-8.7-3.6L-973.2,275.4z M-1149.9,170.9l30.3-5.4 M-1119.2,103.3l21.2-2.4l10.8,8.6
	l24.8-4.6l14.3,12.5l27-2.7l15,10.3l-0.5-10.5 M-1095.7,83.7l-1.1,17.5"/>
<path class="st1" d="M-1083.8,108.8l-0.2-7.9l5.5-4.2 M-1020.3,102.2v12.5 M-1056.8,90.8V98l13.6,11l-4.9,8.4l-0.5,16.7
	 M-1062.4,104.9l-1.2,19.1 M-1021.1,114.7v14.2 M-1006.1,125v7.4 M-999.5,113.2l-0.2,24.6 M-1150.7,12.1l43.3-6.7l20.4,15.7
	l14.3-3.7c0,0,72,53.3,72,52.3s1.7-17.3,1.7-17.3l-14.7-9l-0.7-23l-24-16.3l0.3-3.3 M-1087,21.1l3-19.3 M-1072.7,17.4l1.7-16
	 M-1107.3,5.4l0.6-4"/>
<path class="st1" d="M-1150.7,18.8c1.4,1,33.7,21.6,33.7,21.6l12-2l12.3,8.7l-5,27l14.3,0.7l17.7,9.7l2.3-18.3l18.7,13l12.7-1.3
	l16.7,8.3l0.9-14.4l19.4,12.6v-8l13.3-0.7l1.3-6l13-1.3l-2,49l12,0.3l30.7,18.7"/>
<path class="st1" d="M-1150.5,52.2c1,0.5,20.2,11.2,20.2,11.2l12.5-0.5l20.1,11.2l-10.6-6.2l1.5-11l-21.7-12.7l-12.5,0.7l-9-5.5
	 M-1149.2,111.2l4-20.3"/>
<path class="st1" d="M-1117.8,62.9l-5.1,41.1l-22.3-13.1c0,0-4.8,0.2-5.8,0.2"/>
<path class="st1" d="M-1128.5,44.2l-1.7,19.2l-3.3,33 M-1117,40.4l-1.5,8.8 M-1140,26.7l-1,18.2l-1,10.5 M-1105,38.4l-1.8,18.5
	 M-1083.3,74.8c0.1-0.8,5.6-38.1,5.6-38.1l17.2,10.5l-2.8,18.9 M-1062.5,62.2l6,2.5l13.7-4l16.6,12l25.5-2.9 M-1042.8,60.7
	l-3.3,36.9 M-1032,77.8l-1.6,26.8 M-995,84.4l12.2,7l1.1-15.6l13.4,8.5 M-969.3,117.4l-0.7,10.4l11.5,6.6l5.3-66.1l12.9,9.1
	l-2.7,47.7"/>
<path class="st1" d="M-942.5,119.4l49.8-2.5l36.4,26.7c0,0-23.3,5-24.2,5s-10.1-11.9-10.1-11.9l-17.4,3.2l-5.5-4.8l-35,4.1v19.4
	l-15.5,2.1v8l-13.6-11.7v-4.1l-11-10.1l0.5-20.6l-11.4-9.1c0,0-6.4,1.4-7.1,1.4s-13.7-12.3-13.7-12.3l-21.9,4.8l0.2-5.3l-14.9-11
	l-21.7,5.9l-17.1-13l-22.2,5.7l-1.4,13.9l-3.7,0.7v18l-27.6,5.5 M-892.6,116.9l0.7-16.8c0,0,10.7,7.1,11.1,6.1
	c0.4-1.1-0.7-33.4-0.7-33.4s10,8.2,10,7.7s0.5-11,0.5-11 M-932.1,6.3V1 M-953.4,6.2l-10.3,1.7V1.3 M-994.3,13.5l-3-3.2l-8.2,0.5
	l-10-10.2"/>
<path class="st1" d="M-954.2,26.3l-12.5,1.4l-0.7,16.4l-39.3,2.9l3.6-31.8c0,0,27.5-4.3,27.7-4.8s0-8.8,0-8.8"/>
<path class="st1" d="M-966.8,27.8l14.2,12.3l11.9-2.9 M-952.6,40.1l-0.6,15.7l12.2-2.1 M-967.5,44.2l14.3,11.6 M-845.5,160.5
	c0.6,0.2,14.1,8.7,14.1,8.7v13 M-894,49.9c0.8,0,78.2-12.2,78.2-12.2l17.5,21.2l-1,18.2l-45.7,8.8l45.2,47.8l-40.2,7.8l-10.3-7
	l0.1,7.5"/>
<path class="st1" d="M-799.8,133.7l0.3-28.3l-23.3-23.2 M-799.2,77.2l-17-18l0.4-21.5 M-816.2,59.2l-66.5,10.2 M-860.8,1.4
	c0.8,1,8,15.3,10.2,15s53.8-11.2,53.8-11.2l29,46.2c0,0,50.2-8,50.8-8.8s0.8-21.2,0.8-21.2l-10.6-20.2 M-737.8,1.4l20.8,41.3
	 M-364.5,1.7v4.2l-13,1l4,49l-14.8,3.5l0.5,50.2l-21.8,1.2v-3.2l-13.2,1.2v4.5l-9,0.5l2.2,17.3l-12,1l2.5,22.8l-9.5,1v6.2h-7.8
	l0.2,4.2l-16.8,0.5v-3.2h-5l-0.2-4.8l21.2-1.8v-16.5l-7-13.3l-8.2,0.8l-1-14.3l-9.5,1l-0.2-3.2l-11,1v3l-8.5,1.2l0.2,3.2l-5-0.2
	l-1.5-9.5l-9.5,0.5v-3.2L-530,109v4.8h-6.8L-537,101l-2.2-1.5h-11.2v-3h-11v4.5h-7.8v13.2h-10.2l0.8,8.2l-6.8-0.2l-0.5-2.5
	l-10.8,0.2c0,0,0.8,5.2,0.5,6.5s-10.8-0.5-10.8-0.5l-3.5-2.5h-10l-0.8,5l-3-0.5l-31.5-72.5l-0.2-21.2l52.2-7.2c0,0,5.8,20,6.8,19.8
	s50.2-6.2,50.2-6.2l6.8,18.2l-0.8,19.7l-43.2,8l3.5,9.5l1,18.5"/>
<path class="st1" d="M-655.8,55.7l52.2-5.2c0,0,5,17.2,5.8,17.2s51-4.2,51-4.2v-23 M-540.8,78.4l-6-15 M-603.8,26.9l0.3,23.5
	 M-597,46.7l-0.8,21 M-579.5,114.4l-12.3-27l7.8-1 M-433.2,1.7c0,0-2.7,22.4-1.8,22.2c0.9-0.2,57.1-7.6,57.1-7.6 M-730.5,174.8v-3.1
	h8.3V169h4.1v-4.1h4.7V158h3.1v-2.7h8.1l2.9,2.3l7.3-0.6l3.5,1.8v10h4v3.7h5.8v-20.2h14.2V139h5v-2.4h5.3v-3.8h4.7v-5h11.7l2.3,2.8
	l14.4-1.8"/>
<path id="svg-concept_1_" class="st0" d="M-787.8,561.8l-24.2,70l14.7,10l23.6,4l29.2-88.9"/>
<path id="svg-concept_2_" class="st0" d="M-773.7,645.8l-13.8-9.9l-24.5-4.1 M-756.2,591.6l-13-11l-24.5-1.5 M-752.2,579.3
	l-13.5-9.9l-24.8,0.7 M-770.5,634.4l-13.2-11l-24.5-3 M-766,623.1h13.3l12.2-17.2l-12.2-24.3 M-760.7,606.6l8,16.5 M-756.2,615.4
	l11.4-18.1"/>
<path id="svg-concept_3_" class="st0" d="M-745.7,613.1l19.9,1.8l23.8-64.8l-35,5.2l-12.5,32.1"/>
<path id="svg-concept_4_" class="st0" d="M-740.5,605.9h4.7l10,9 M-722,603.8l-10.2-9l-14.5-0.9 M-716.8,552.8l-19,53.1
	 M-712.3,577.4l-11.2-6.1h-19.7 M-710.5,572.8l-9.8-10.2l-20,1.2 M-696.7,547.1l17.7,56.2l19.2,2.5l9.1-12.4l-15.1-50.3
	L-696.7,547.1z"/>
<path id="svg-concept_5_" class="st0" d="M-681.8,594.8l19,1.5l9.3-11.5 M-659.8,605.8l-19.2-60.7 M-787.5,635.9l27.5-83l15.5,4
	l44.8-7.5v-2.3l39.7-4.8l0.7-66.5h-8.4l13.4-26.4l-3.4-11.1h-13.5l-22.6,35.5h-5.5v-16l-44.5-3.5l-14.4,1.3l-1.5-21.8l-23.5-2.7
	l-10.6,2.5l0.1,21.8l-9.8-2l-0.3-24l-23.2-3l-12.2,2.2v25.5l-19.1,5.2v51.1l-13.7,4.5l0.8,40.5l33.9,10.9l29.1-10.2l21.7,6l26.5-9.2
	 M-799.5,558.7l7.4,15.2 M-657.7,438.3l-19.1,36.5"/>
<path id="svg-concept_6_" class="st0" d="M-667.7,475.8l-31.6-2l-0.4,73.3 M-728.2,456.3v11.3l15.7,1.3l0.5,57.9l-8,0.5v13.3
	l7.8-0.7v11 M-744.5,556.9l0.7-102.6 M-744.2,512.9h9.5v-14l-9.6,0.5"/>
<path id="svg-concept_7_" class="st0" d="M-720,527.3v-16.4h-8.5v16.7L-720,527.3z M-735.5,555.2v-13.4l8.8-0.7v12.5 M-760,552.9
	l12.5-4.9l-1.2-85.3l-9.1-1.7l-0.4-5.4"/>
<path id="svg-concept_8_" class="st0" d="M-748.7,462.7l-40.5,9.8l2.7,90.2 M-789.2,472.5l-69.1-13.2 M-839.2,454.1l25.2,4.4
	l10.7-2.3l-0.2-2.8"/>
<path id="svg-concept_9_" class="st0" d="M-839.2,428.6l24.5,3.8l-0.1,25.6 M-793.8,433.6l23.9,3.2l1.2,30.2l-25.1-5V433.6z
	 M-757.8,461v3.9 M-769.9,436.8l10.2-3 M-814.7,432.4l10.9-3 M-845,506.2l-13.3,4.2 M-808.2,556.1l-1-41.7 M-871.5,544.7l34.3,9.4
	l28.4-9.2"/>
<path id="svg-concept_10_" class="st0" d="M-837.3,566.3l-0.3-43.4l28.4-8.5 M-818.9,517.4l1.4,41.9 M-837.6,522.9l-34.4-8"/>
<path id="svg-concept_11_" class="st0" d="M-822.2,511.5l-27.7,8.7v13.2l-13-3.2v-13l26.6-8.8 M-851.5,513.7l12.4,3 M-858.4,502.8
	l70.3,16.4 M-858.3,488.7l69.9,13.2 M-849.3,504.9v-28l13.1,1.8v29.2 M-813.7,513.3v-30.9l13.6,1.8v32.4 M-858.3,498.7l-8.8-0.3
	l0.4,13.6 M-1150.2,477.9l60.4-2.1l-1.7-12.7l31.3-14.3l54,1.3l8.7,62.2l-28.8,8.5v16.1h-6.2v46.5l-20.5,2.5l-7-2v2l-22.3,1.2h-23
	l-0.5-9h-21.7v3.2l-22.7,1.5"/>
<path id="svg-concept_12_" class="st0" d="M-1150,535.8l66.3,1.8l51.2-0.7 M-1127.5,578.1l0.8-41.3 M-1115,577.9l-0.3-40.6
	 M-1115.2,571.3h5.4v6.6 M-1105.8,578.1l-1.7-40.7 M-1144.5,582.3v-7.2h-5.7 M-1133.3,581.6v-7.3h-5.7l-0.2,8 M-1083.5,578.8
	l6.5-0.4v8.2 M-1071,586.3v-8.5h4.8l0.4,8.3 M-1053,585.9l1.8-48.3 M-1060,583.9l-2.5-46.3 M-1052.8,577.3h4.3v7.8 M-1043.2,584.6
	v-8h4.9v7.3"/>
<path id="svg-concept_13_" class="st0" d="M-1089.8,475.8h6.6l-0.5,61.8l0.5,49.2 M-1026.3,520.8l-51.2,1.6l-5.7-46.6"/>
<path id="svg-concept_14_" class="st0" d="M-1026.3,525.8l-54.5,0.5v-29.9"/>
<path id="svg-concept_15_" class="st0" d="M-1060.2,448.8l7.7,65.6l55-2.1 M-1052.5,514.4l-25,8 M-1067.3,502.3l4.8-1.5l-2.7-24.7
	l-4.8,0.8L-1067.3,502.3z"/>
<path id="svg-concept_16_" class="st0" d="M-1040.8,506.6l6.6-2.8l26.7-0.5l-2.7-24l-27.3-0.4l-5.5,3L-1040.8,506.6z"/>
<path id="svg-concept_17_" class="st0" d="M-1040.8,506.6v2.7l28.8-1.4l4.5-4.6 M-1037.5,478.9l3.3,24.9 M-1035,495.9l26.7,0.2
	 M-1036.5,487.3h27.2 M-1029.2,487.8l0.7,8 M-1016.2,487.6l0.5,8.5 M-1057.5,472.4h14.7v9.5l-13.7-0.3 M-1050.2,472.8l0.5,8.8
	 M-1015.8,479.3v-6.7h12.6 M-1001.8,481.3h-8 M-1008.8,473.1l0.5,8.2 M-1137.2,530.3h48v-7.7h-48
	C-1137.2,522.6-1136.7,530.3-1137.2,530.3z M-1127.3,506.3h27.7v8.2h-27.7V506.3z M-1146.3,500.1l57.1-0.8v-9l-57.1,1.5V500.1z
	 M-832.8,388.7v-3.4l9.4-3v-5l5.3-2.1l-4.5-13.8h4.7v-6.9h-4.5v-6.3l-9.8-2.3l-7.1,0.8v14.1h-7.6l-8,3.6l-2.6,10.4l1.3,3h4.3v7.5
	h6.3v3.4"/>
<path id="svg-concept_18_" class="st0" d="M-851.9,385.3l10.1-4.2l18.4,1.2 M-841.8,381.1v-19.9 M-851.9,377.8l5.3-1.1l3.2-15.6
	 M-846.9,360.8l-3,12l-7.3,1.8 M-849.9,372.8l3.3,3.9 M-841.8,368.4h18.1l0.3,8.9 M-822.6,361.4h-10.1v-7l10.3,0.1 M-832.2,345.9
	l-0.5,8.5 M-832.5,350.5h3.3v3.8"/>
<path id="svg-concept_19_" class="st0" d="M-822.3,351h-3.3v10.4 M-830.3,368.2v-6.7 M-823.7,368.4v-7"/>
<g>
	<path id="svg-concept_20_" class="st0" d="M-368,272.1c0,0,25.6-0.4,25.6-0.8s-0.2-27.4-0.2-27.4l-26.9,0.9L-368,272.1L-368,272.1z
		 M-368.4,266.6h-3.9l-0.7-18.7l0.6-3l2.9-0.1"/>
	<path id="svg-concept_21_" class="st0" d="M-373.1,250.8l-33.1,33.3v28.5l35.1-24.9l35.5,7.1l-4.2-32h-7.1v8.6 M-371.1,287.7
		l-1.2-21.1 M-401,309.1v3.3 M-397.4,306.4v5.8 M-397.5,307.8h12.3 M-385,297.6v14.6"/>
	<path id="svg-concept_22_" class="st0" d="M-377.8,312.3l4.6-2.3l16.4,2.1l-1.6-17.8l-16.9-3.1l2.1,18.8 M-373.2,310l1.6,10.3
		 M-359.2,311.9v7.4 M-355,295l1.8,18.1l13.8,1.2l-1.9-16.6L-355,295z"/>
	<path id="svg-concept_23_" class="st0" d="M-359.2,315.7l6-2.6v5.8 M-342.7,314.6v3.8 M-368.9,254.1h8.7v4.5h-8.5 M-342.7,253.8
		h-8.8v4.6h8.9 M-358.9,271.8v-8.7h7.4v8.6 M-368.7,262.9h5.5v9 M-335.6,294.8l-5.7,2.9"/>
</g>
<path class="st1" d="M-434.6,305.3h12.6l2,8.7l13.8-1.4l28.4-0.3l1.6,8.2l91-5.7l1,7.2"/>
<g>
	<path class="st1" d="M-541.9,608.2l28.3,1.9l16.4-19.6l-35.6-2.3"/>
	<path id="svg-concept_24_" class="st0" d="M-643.2,593.8l16.2,61l63.3,5.2l-16.1-63.3L-643.2,593.8z M-643.3,593.8l72.7-128.6
		 M-499.9,305l-13.1-6.1l-101,17.5l-4,153l103.6-11.7l-65.4,139 M-563.7,660l71.7-171.1l-12-23l13,11.5l3.1-103.7"/>
	<path id="svg-concept_25_" class="st0" d="M-527.8,574.4l3.2,4.1l40,2l13.2-38.5l-30.1-31.4"/>
	<path id="svg-concept_26_" class="st0" d="M-486.9,526.1l-6.8,17.8l6.5,5.7l-7.7,20.6l-30.3-1.4 M-516.4,547.2l31.4,33.4
		 M-542.5,606.9l0.4,1.3 M-627.8,566.4l61.8,1.2l9.7,28.2l6.2-13.6l7.6,24.7 M-590.5,523.8l29.9-1.2l5.6-11l-29.6,2.1L-590.5,523.8z
		 M-618,469.4l13.7,7.9l-7.1,16l15.9,16.1 M-611.4,493.3h25 M-604.3,477.3l28.2-2.6 M-513,298.9l-1.4,158.8 M-529.2,459.4v-11
		l-14.3,1.5v-13l-73.7,8.8 M-590.2,312.7v12.1l12.3-2.3v12.6l24.8-3.3v-13.9l13.5-2.4v-11.6 M-614,316.4l-11-8.5l4.3-102.2
		l101.1-21.2l43.3,37.9l-2.9,70.6"/>
	<path id="svg-concept_27_" class="st0" d="M-496.9,295.9l53-7.8l54.5,106.1l-6.7,39.8l-53.5,8.1l-59.8-106.3L-496.9,295.9z"/>
	<path id="svg-concept_28_" class="st0" d="M-509.4,335.8l54.4-7.5l11.1-40.2 M-424.5,326.8l-10.5,39.8l-52.9,7.1 M-455,328.3
		l58.9,105.7 M-499.1,302.5l-27.3-13.7l-98.6,19.1"/>
	<path id="svg-concept_29_" class="st0" d="M-603.3,303.6l1.3-27.6l12.9-1.9l-0.4,12l25.1-4.7l0.2-12.4l13.1-2.2l-0.8,27.1"/>
	<path id="svg-concept_30_" class="st0" d="M-589.1,274.1l24.9-5.1l0.5-13.1l-24.8,4.8L-589.1,274.1z M-588.5,260.7l0.4-13.1
		l-24.2,5.6l-0.4,12.6L-588.5,260.7z M-563.7,255.9l0.6-13.6l25.9-5.5v14.1L-563.7,255.9z M-549.9,239.6v14 M-600.9,250.8v12.4
		 M-622.5,243.3l12-2.1l0.1-14.1l73.8-15.8v12.6l13.7-2.7 M-519.6,184.5l-6.8,104.3 M-523.6,249.2l6.1,4.1l1-13.2l11.5,9.1
		l-1.9,27.2l11.7,6.8l-0.4,9.2l7.7,1.8 M-702.3,338.8l-31.5,15.1l13.7,54.9l52.5-6.7l52.1-33.3 M-623.5,309.1l-26.4,4.5l-18.9,9.1"
		/>
	<path id="svg-concept_31_" class="st0" d="M-618.5,370.3l-12.5-52l-35.6,6"/>
	<path id="svg-concept_32_" class="st0" d="M-733.8,353.9l51.6-7.5l61.8-34.5 M-681.5,404.2l18.9,11.6l13.2-0.9l8-29.3"/>
	<path id="svg-concept_33_" class="st0" d="M-649.4,414.9l-18.2-12.8l-14.6-55.7"/>
	<path id="svg-concept_34_" class="st0" d="M-671.9,410.3l12.7-2.1l3.1-13.3l10.5,6 M-703.7,344.1c0,0,12.5-1.3,13.8-1.7
		s28.7-14.8,28.7-14.8l-11-6.4l3.9-13.8l-10.3-5.7l3.6-14.5l-10.7-5.7l4.3-14.3l-11.1-6.1l4.8-13.8l-11.7-6l2.3-6.7l30.1,19.1
		l13.7-1.9l1.9-6.6l12.7-1.3l4.6-14.3l-11.6-6.3l5.1-14.4l-52.5-30.4l-13.4,1.1l-1.4,7.1l-19.5-12.1l-13.3,2.3l-10,34.5l-12.8,1.6
		l-20.5,69.7l11,5.6l-4,14l8.8,6.3l15.1-1.9l1.4-6.4l12.5-1.4l9.6-33.7l10.3,5.4l-4.1,13.8l10.3,6l-3.6,14.1l10.1,5.7l-3.6,14
		l10.4,6.1L-703.7,344.1L-703.7,344.1z"/>
	<path id="svg-concept_35_" class="st0" d="M-699.7,330.3l13.5-1.5l11.1,5.9l2.9-13.5l-20.9-12.6 M-710.1,324.2l13.2-1.5
		 M-706.5,310.2l13.4-1.6l7.4-27.2l-20.8-12.6 M-716.7,304.5l12.9-1.6"/>
	<path id="svg-concept_36_" class="st0" d="M-713.1,290.4l13.2-1.8l7.3-27.6 M-723.4,284.4l13.2-1.5 M-719.2,270.6l12.7-1.8
		l7.1-27.6 M-686.2,328.8l7.6-27.2l-21.3-13"/>
	<path id="svg-concept_37_" class="st0" d="M-653.3,251.7l-51.9-31.1l-7.9,28.3"/>
	<path id="svg-concept_38_" class="st0" d="M-729.5,265.1l9.8-36.2l20.4,12.7 M-692.3,261l-21.1-12.2"/>
	<path id="svg-concept_39_" class="st0" d="M-751.6,300.2l17.4-63.1l10.4,5.8l10.7,6l-4.1,13.5l10.7,6.4l-3.7,14.1l10.3,5.7
		l-3.9,14.3l10.7,5.7l-3.8,14.1l10.7,6.1l-3.7,13.6 M-638.8,243.9l-52-31.1l-6.3,21.7"/>
	<path id="svg-concept_40_" class="st0" d="M-651.5,245.2l5.7-21.8l-51.7-30.3l-4,13.8l-10.2-5.1l-4,13.5l-10.6-5.5l-3.7,13.1
		l-10.7-5.3l-23.6,82.8"/>
	<path id="svg-concept_41_" class="st0" d="M-739,298.8l-31.8-17.9l-13.2,1.8 M-773,288.2l12.3-1.3 M-770.8,280.9l20.1-69.4l10,6.1
		l13.2-42.9"/>
	<path id="svg-concept_42_" class="st0" d="M-749,205.6l12.3-1.3l10.4,5.5l8.8-28.4"/>
	<path id="svg-concept_43_" class="st0" d="M-693.1,178.6l-4.4,14.5l-10.5-6.2l-3.7,14.9l-20.6-11.4l-12.5,0.9 M-490.2,447.6
		l-16.3-9.7v13.5l-7.8-3.7"/>
</g>
<g>
	<path id="svg-concept_44_" class="st0" d="M-376.9,587.9l30.8,1.8l3.4-9.4l1.6,8.4l31.3,2.8l4.9-6.5l13.3,0.5l8.6-46.4l-10.9-11.7
		l3.6-88.2h2.6l1.9-62.4l-14.4-8.8h-64.7l-1.3,66.5h3.9l-1.8,93.9h-14.1l-11.2,47.5L-376.9,587.9z"/>
	<path id="svg-concept_45_" class="st0" d="M-362.3,434.5l60.8-0.3l13.8,5h-74.8 M-301,439.4l-3.1,95.8l9.9-0.3l-4.9,32.1l3.1,2.9
		l-1.6,8.3l6,7.3"/>
	<path id="svg-concept_46_" class="st0" d="M-304.9,585l6.3-11.5l-5.5-38.3l-0.2-4.7l-31.6-2.6l-11.2,14.8l4.4,37.6"/>
	<path id="svg-concept_47_" class="st0" d="M-343.5,573.5l32.1,2.1l0.9,8.2l3-4.3l0.7,7.7 M-304.3,530.5l-10.8,14.3l3.7,30.8
		 M-347.1,542.7l32,2.1 M-341.2,534.9l-6.2-5.3l-16.7-1.2"/>
	<path id="svg-concept_48_" class="st0" d="M-347.4,529.6l-10.6,48l11.9,12.1 M-389.4,575.9l31.4,1.7 M-385.8,560.1l31.2,1.1
		 M-310.5,583.4l0.7,8.1"/>
	<path id="svg-concept_49_" class="st0" d="M-356.2,570.1l4.6,2.7l-2.2,8.5 M-350.7,433.9v-23.8h8.9v-8.5h16.3v8.8h8.2v23.9"/>
	<path id="svg-concept_50_" class="st0" d="M-342.7,434.3v-7.9h16.5v7.6 M-341.7,401.6h-16.1v-16.8h15.9L-341.7,401.6z
		 M-325.5,401.6v-17.1h16.7v17.4L-325.5,401.6z M-300.2,368l-1.3,66.2 M-326.8,528.5v-26.8h-7.5v-25.2h-7.3V493l-16.2-0.5v8h15.8
		v17.1h6.1l0.1,10.2 M-319.2,501.3v17.1h8v-16.8L-319.2,501.3z M-302.8,492.9h-8.1V477h8.6 M-339.9,439.6v12h7.4v-11.7
		 M-317.4,439.6v12h7.5v-11.8 M-301.3,451.7h-8.6v8.5h8.5 M-363.4,492.4h5.5v-8.6h-5.3"/>
	<path id="svg-concept_51_" class="st0" d="M-357.9,483.8h9.2v-7.7h-9.2V483.8z"/>
</g>
<path class="st1" d="M-789.5,423.9l-0.2-67.1l-22.5,1.4v35l-10.8-5l-63,3.4"/>
<g>
	<path id="svg-concept_52_" class="st0" d="M-148.5,428.2l12.5-2.5l11.8,32.8l-2.8,2.8l5.5,0.8l5.5-3l7.8,4.8l17.8-5.8l-9-5.5
		l-4.2,1.8l-2.8-1.2l-3.5-34.5l23-5l-8.8-35c0,0,2.5-0.2,3.2-0.5s18.2-13.5,18.2-13.5l-2.8-5.5l-22.8,12l-7.8-30.2l-7.8-4.2
		L-143,347l1.5,10.2l-6.2,2.2l4.5,16l8.8,0.8l-8.2,3.2l-30.2-8l-10.2,11.5l-0.5,6.2l27.5,7L-148.5,428.2L-148.5,428.2z"/>
	<path id="svg-concept_53_" class="st0" d="M-137.7,377.9l11.3,45.1l16.4-4.6 M-136,425.7l9.6-2.7 M-129.7,424.2l12.5,32.3l5.7-1.3
		l3.1,0.6l-7.6,3.1 M-116.1,420.3l3.3,34.9 M-142.5,379.2l-0.1,7.9l-13.4,9.1"/>
	<path id="svg-concept_54_" class="st0" d="M-183.5,389.2l9.9-9.9l31,7.8 M-172.8,371.2l-0.8,8.1 M-92.5,377.9l-4.5-7.7
		 M-132.6,375.5l3.8,14.3l7.1,0.5l12.6-4.6l-3.4-15l-5.3-1.1l-16.4,6.3"/>
	<path id="svg-concept_55_" class="st0" d="M-128.8,389.8l13.9-5.1l5.8,1 M-114.9,384.7l-2.9-15.1 M-115.2,336.4l11.9,47.1l5.6,0.5
		l-2.1-13.1l4,7.5 M-97.7,384l-24,6.3 M-113,364.6l-4.6-15.3l-29.9,9.9 M-117.6,349.3l6,2.7 M-141.9,353.2l6.9-2.3l0.7,3.6
		 M-120.7,350.1l-0.7-3.6l7.7-2.2"/>
	<path id="svg-concept_56_" class="st0" d="M-113.4,370.6l6.4-2l-6-4l-30,10.6"/>
</g>
<path id="svg-concept_57_" class="st0" d="M-729.2,265.5l12-3.1"/>
<image style="overflow:visible;" width="830" height="825" xlink:href="../../../../../../Desktop/crypto01.png"  transform="matrix(1 0 0 1 1520.8848 -421.0873)">
</image>
<image style="overflow:visible;" width="886" height="889" xlink:href="../../../../../../Desktop/crypto02.png"  transform="matrix(1 0 0 1 1210.6727 481.8827)">
</image>
<image style="overflow:visible;" width="384" height="479" xlink:href="../../../../../../Desktop/crypto03.png"  transform="matrix(1 0 0 1 128.377 -706.1149)">
</image>
<image style="overflow:visible;" width="961" height="540" xlink:href="../../../../../../Desktop/crypto04.png"  transform="matrix(1 0 0 1 -2.6015 720.861)">
</image>
<line class="st2" x1="728.4" y1="315.5" x2="754.4" y2="315.5"/>
<line class="st2" x1="728.4" y1="268.7" x2="750" y2="268.7"/>
<line class="st2" x1="738.2" y1="292.1" x2="754.4" y2="292.1"/>
<path class="st2" d="M750,268.7c6.2,0,11.3,5.1,11.3,11.3s-5.1,12.1-11.3,12.1"/>
<path class="st2" d="M754.4,292.1c6.2,0,11.3,5.9,11.3,12.1c0,6.2-5.1,11.3-11.3,11.3"/>
<line class="st2" x1="738.2" y1="260.3" x2="738.2" y2="324"/>
<line class="st2" x1="747.1" y1="315.5" x2="747.1" y2="324"/>
<line class="st2" x1="747.1" y1="260.3" x2="747.1" y2="268.7"/>
<line class="st3" x1="739.5" y1="384.2" x2="750" y2="384.2"/>
<line class="st3" x1="739.5" y1="365.3" x2="748.3" y2="365.3"/>
<line class="st3" x1="743.5" y1="374.8" x2="750" y2="374.8"/>
<path class="st3" d="M748.3,365.3c2.5,0,4.6,2,4.6,4.6s-2,4.9-4.6,4.9"/>
<path class="st3" d="M750,374.8c2.5,0,4.6,2.4,4.6,4.9c0,2.5-2,4.6-4.6,4.6"/>
<line class="st3" x1="743.5" y1="361.8" x2="743.5" y2="387.7"/>
<line class="st3" x1="747.1" y1="384.2" x2="747.1" y2="387.7"/>
<line class="st3" x1="747.1" y1="361.8" x2="747.1" y2="365.3"/>
<line class="st3" x1="954.8" y1="375.5" x2="966.5" y2="375.5"/>
<line class="st3" x1="954.8" y1="354.6" x2="964.5" y2="354.6"/>
<line class="st3" x1="959.2" y1="365.1" x2="966.5" y2="365.1"/>
<path class="st3" d="M964.5,354.6c2.8,0,5,2.3,5,5s-2.3,5.4-5,5.4"/>
<path class="st3" d="M966.5,365.1c2.8,0,5,2.6,5,5.4s-2.3,5-5,5"/>
<line class="st3" x1="959.2" y1="350.8" x2="959.2" y2="379.3"/>
<line class="st3" x1="963.2" y1="375.5" x2="963.2" y2="379.3"/>
<line class="st3" x1="963.2" y1="350.8" x2="963.2" y2="354.6"/>
<polyline class="st2" points="816.7,263.5 806.4,311.7 835,311.7 "/>
<line class="st2" x1="793.5" y1="294.9" x2="827.4" y2="283"/>
<polygon class="st2" points="885.7,259.4 865.5,293.1 885.7,304.5 905.9,292.6 "/>
<polygon class="st2" points="865.5,299.4 885.7,326 905.9,299 885.7,310.9 "/>
<line class="st2" x1="885.7" y1="259.4" x2="885.7" y2="304.5"/>
<line class="st2" x1="885.7" y1="310.9" x2="885.7" y2="326"/>
<polyline class="st2" points="865.5,293.1 885.7,283.8 905.9,292.6 "/>
<g>
	<line class="st3" x1="816.8" y1="449.2" x2="816.8" y2="455.2"/>
	<polygon class="st3" points="816.8,426.6 808.7,440 816.8,444.6 824.8,439.8 	"/>
	<polygon class="st3" points="808.7,444.6 816.8,455.2 824.8,444.4 816.8,449.2 	"/>
	<line class="st3" x1="816.8" y1="426.6" x2="816.8" y2="444.6"/>
	<polyline class="st3" points="808.7,440 816.8,436.3 824.8,439.8 	"/>
</g>
<polyline class="st2" points="937.8,275.2 969.5,275.2 937.8,309.8 968.9,309.8 "/>
<line class="st2" x1="953.6" y1="309.8" x2="953.6" y2="321.5"/>
<line class="st2" x1="953.6" y1="262.7" x2="953.6" y2="275.2"/>
<g>
	<polyline class="st3" points="810.3,362.9 828.7,362.9 810.3,381.4 828.3,381.4 	"/>
	<line class="st3" x1="819.5" y1="356.2" x2="819.5" y2="387.7"/>
</g>
<polyline class="st2" points="1010.4,315.5 994.1,315.5 994.1,300.4 "/>
<line class="st2" x1="994.1" y1="268.7" x2="1006" y2="268.7"/>
<line class="st2" x1="984.4" y1="292.1" x2="1010.4" y2="292.1"/>
<path class="st2" d="M1006,268.7c6.2,0,11.3,5.1,11.3,11.3s-5.1,12.1-11.3,12.1"/>
<path class="st2" d="M1010.4,292.1c6.2,0,11.3,5.9,11.3,12.1c0,6.2-5.1,11.3-11.3,11.3"/>
<line class="st2" x1="994.1" y1="268.7" x2="994.1" y2="292.1"/>
<path class="st2" d="M1059.4,279.2c0-6.2-5-11.3-11.3-11.3c-6.2,0-11.2,5-11.2,11.3c0,5.9,4.7,10.5,11.3,11.3
	c7.2,0.8,12.1,5.5,12.1,11.7c0,6.4-5.2,11.7-11.7,11.7h0c-6.4,0-11.7-5.2-11.7-11.7"/>
<path id="svg-ico_1_" class="st4" d="M1048.9,313.9v6.2"/>
<path id="svg-ico" class="st4" d="M1048.9,261.2v6.9"/>
<path class="st3" d="M1043.9,366.2c0-2.9-2.3-5.2-5.2-5.2c-2.9,0-5.2,2.3-5.2,5.2c0,2.7,2.1,4.8,5.2,5.2c3.3,0.4,5.6,2.5,5.6,5.4
	c0,3-2.4,5.4-5.4,5.4h0c-3,0-5.4-2.4-5.4-5.4"/>
<path id="svg-ico_8_" class="st5" d="M1039.1,382.2v2.8"/>
<path id="svg-ico_7_" class="st5" d="M1039.1,357.9v3.2"/>
<path class="st6" d="M737.2,352c0.4,0,18.3,0,18.3,0c0.3,0,0.5-0.2,0.6-0.4l1.7-4.8c0.3-0.8,0.2-1.6-0.3-2.3s-1.2-1.1-2.1-1.1h-4.8
	c-1.2-1.2-2.7-1.8-4.4-1.8c-1.6,0-3.2,0.7-4.4,1.8h-4.8c-0.8,0-1.6,0.4-2.1,1.1s-0.6,1.6-0.3,2.3l1.7,4.8
	C736.5,351.6,736.8,352,737.2,352z"/>
<path class="st6" d="M755.4,356.3h-18.3c-0.2,0-0.3,0.1-0.4,0.2c-0.5,0.5-13,11.3-13,24.3c0,7.6,5.7,11.6,9.8,11.6h25.6
	c4.1,0,9.8-4,9.8-11.6c0-13-12.6-24.1-12.8-24.3C755.9,356.3,755.6,356.3,755.4,356.3z"/>
<path class="st2" d="M839.6,341.6h-36.5c-3.3,0-5,1.5-5,5v40.8c0,2.8,2.2,5,5,5c0,0,28.3,0,31.9,0s5.3-2.8,5.3-5v-35.3
	c0-0.4-0.3-0.7-0.7-0.7h-36.5c-3.2,0-5-0.6-5-4.8"/>
<path class="st2" d="M839.6,346.6c0,0-36.5,0-36.5,0"/>
<path class="st2" d="M905.9,381.6c-2.7,7.4-9.7,12.4-17.6,12.4c-10.3,0-18.7-8.4-18.7-18.7V355c0-10.3,8.4-18.7,18.7-18.7
	c7.8,0,14.9,5,17.6,12.4"/>
<path id="svg-ico_4_" class="st2" d="M863.7,360.9h34.8"/>
<path id="svg-ico_3_" class="st2" d="M898.5,369.2h-34.8"/>
<path class="st3" d="M750.4,443c-0.6,1.7-2.2,2.8-4,2.8c-2.4,0-4.3-1.9-4.3-4.3v-4.6c0-2.4,1.9-4.3,4.3-4.3c1.8,0,3.4,1.1,4,2.8"/>
<path id="svg-ico_10_" class="st3" d="M740.7,437.9h6.2"/>
<path id="svg-ico_9_" class="st3" d="M746.9,440.7h-6.2"/>
<path class="st2" d="M935.1,368.2c1.6,14.3,13.6,25.1,28,25.1c15.5,0,28.2-12.7,28.2-28.2c0-15.6-12.7-28.2-28.2-28.2
	c-14.4,0-26.5,10.8-28,25.1"/>
<path class="st2" d="M963.2,385.7c11.4,0,20.6-9.3,20.6-20.6c0-11.4-9.3-20.6-20.6-20.6c-11.4,0-20.6,9.3-20.6,20.6
	C942.5,376.5,951.8,385.7,963.2,385.7L963.2,385.7z"/>
<path class="st6" d="M1070.3,337.6h-62.7c-0.5,0-0.9,0.4-0.9,0.9v50.2c0,0.5,0.4,0.9,0.9,0.9h62.7c0.5,0,0.9-0.4,0.9-0.9v-50.2
	C1071.1,337.9,1070.8,337.6,1070.3,337.6z M1071.1,352.5h-64.4"/>
<path id="svg-ico_6_" class="st7" d="M1016.4,346.9c1.1,0,2-0.9,2-2s-0.9-2-2-2c-1.1,0-2,0.9-2,2
	C1014.4,346,1015.3,346.9,1016.4,346.9z"/>
<path id="svg-ico_5_" class="st7" d="M1024.6,346.9c1.1,0,2-0.9,2-2s-0.9-2-2-2c-1.1,0-2,0.9-2,2
	C1022.6,346,1023.5,346.9,1024.6,346.9z"/>
<path id="svg-ico_2_" class="st7" d="M1032.8,346.9c1.1,0,2-0.9,2-2s-0.9-2-2-2c-1.1,0-2,0.9-2,2
	C1030.8,346,1031.7,346.9,1032.8,346.9z"/>
<path class="st2" d="M735.3,451.5l28-4.1c0.6,0,1-0.5,1-1l3.3-16.8c0-0.6-0.5-1.1-1.1-1.1l0,0h-38.6c-0.6,0-1.1,0.5-1.1,1.2l4,25.7"
	/>
<path class="st2" d="M757.6,456.2c2.1,0,3.7,1.7,3.7,3.7s-1.7,3.7-3.7,3.7c-2.1,0-3.7-1.7-3.7-3.7S755.5,456.2,757.6,456.2z"/>
<circle class="st2" cx="738.4" cy="460" r="3.7"/>
<line class="st3" x1="745.5" y1="458.4" x2="750.4" y2="458.4"/>
<line class="st2" x1="721.8" y1="424.5" x2="729.1" y2="424.5"/>
<path class="st6" d="M816.7,463.7c-0.9,0-1.8-0.1-2.6-0.2c-2.2-0.3-3.9-2.2-3.8-4.5c0-0.4-0.2-0.8-0.6-1c-0.3-0.1-0.9,0-1.2,0.3
	c-1.5,1.6-4.1,1.8-5.8,0.5c-1.3-1.1-2.5-2.3-3.5-3.6c-1.4-1.7-1.2-4.3,0.5-5.8c0.3-0.3,0.4-0.8,0.3-1.2c-0.2-0.4-0.5-0.6-0.9-0.6
	c-2,0-4.3-1.3-4.5-3.8c-0.2-1.7-0.2-3.4,0-5.1c0.3-2.2,2.1-3.8,4.2-3.8c0.6,0,1.1-0.2,1.3-0.6c0.2-0.4,0.1-0.9-0.3-1.2
	c-1.7-1.5-1.9-4.1-0.5-5.8c1.1-1.3,2.3-2.5,3.6-3.6c1.8-1.3,4.4-1.1,5.8,0.5c0.2,0.2,0.8,0.4,1.2,0.3c0.4-0.2,0.6-0.6,0.6-1
	c-0.1-2.2,1.6-4.2,3.8-4.4c1.6-0.2,3.4-0.2,5,0c2.3,0.3,3.9,2.2,3.8,4.5c0,0.4,0.2,0.8,0.6,1c0.1,0,0.2,0,0.3,0
	c0.4,0,0.7-0.2,0.8-0.3c1.5-1.6,4.2-1.8,5.9-0.5c1.3,1,2.5,2.2,3.5,3.6c1.4,1.7,1.2,4.3-0.5,5.8c-0.3,0.3-0.4,0.8-0.3,1.2
	c0.2,0.4,0.5,0.6,1,0.6c2,0,4.2,1.4,4.4,3.8c0.2,1.7,0.2,3.4,0,5.1c-0.3,2.2-2.1,3.8-4.2,3.8c-0.1,0-0.4,0-0.4,0
	c-0.3,0-0.7,0.3-0.9,0.6c-0.2,0.4-0.1,0.9,0.3,1.2c1.7,1.5,1.9,4.1,0.5,5.9c-1.1,1.3-2.3,2.5-3.6,3.6c-1.7,1.3-4.3,1.1-5.8-0.5
	c-0.2-0.3-0.9-0.4-1.2-0.3c-0.4,0.2-0.6,0.6-0.6,1c0.1,2.2-1.6,4.2-3.8,4.4C818.4,463.7,817.5,463.7,816.7,463.7L816.7,463.7z"/>
</svg>
